<svg xmlns="http://www.w3.org/2000/svg" viewBox="0 0 56 56"><defs><clipPath id="clip-path"><path d="M39.31 44.79a.73.73 0 0 1-.54 1.21H17.23a.73.73 0 0 1-.54-1.21l10.68-12.3a.84.84 0 0 1 1.26 0Z"/></clipPath><clipPath id="clip-path-2"><path style="fill:none" d="M-4-3h64v64H-4z"/></clipPath><clipPath id="clip-path-3"><path d="M28 22a6 6 0 0 0-3.65 10.76.16.16 0 0 1 0 .23l-.86 1-.19.21a.18.18 0 0 1-.27 0l-.32-.2a8 8 0 1 1 10.56 0l-.31.25a.18.18 0 0 1-.27 0l-.2-.22-.85-1a.17.17 0 0 1 0-.24A6 6 0 0 0 28 22Zm0-5a11 11 0 0 0-7 19.49l.1.07a.15.15 0 0 1 0 .21L21 37l-.88 1a.2.2 0 0 1-.28 0h-.14a13 13 0 1 1 16.6 0l-.12.09a.14.14 0 0 1-.2 0L35.9 38l-.89-1-.14-.16a.14.14 0 0 1 0-.21l.14-.11A11 11 0 0 0 28 17ZM17.82 40.33a.21.21 0 0 1 0 .29l-.06.07-.92 1.07-.06.07a.2.2 0 0 1-.28 0l-.08-.07a18 18 0 1 1 23 .07.16.16 0 0 1-.21 0l-1-1.2-.05-.05a.16.16 0 0 1 0-.21h.06a16 16 0 1 0-20.49-.07Z"/></clipPath></defs><path d="M11.51 27.21h32.97V51H11.51z" style="clip-path:url(#clip-path)"/><path d="M5 5h46v41.92H5z" style="clip-path:url(#clip-path-3)"/></svg>