<svg width="12" height="13" viewBox="0 0 12 13" fill="none" xmlns="http://www.w3.org/2000/svg">
<path d="M0.77493 11.4212C0.325905 11.4212 0 11.7543 0 12.2106C0 12.6669 0.325905 13 0.77493 13H10.3203C10.7766 13 11.1097 12.6669 11.1097 12.2106C11.1097 11.7543 10.7766 11.4212 10.3203 11.4212H5.72145C5.88802 11.385 6.03287 11.2981 6.15599 11.1749L10.7694 6.61226C10.9432 6.43844 11.0301 6.23565 11.0301 6.02563C11.0301 5.56936 10.6969 5.23621 10.2552 5.23621C10.0234 5.23621 9.82061 5.33036 9.67577 5.47521L8.19109 6.93816L6.28635 9.02396L6.35877 7.50306V0.818384C6.35877 0.325905 6.03287 0 5.55487 0C5.07688 0 4.74373 0.325905 4.74373 0.818384V7.50306L4.8234 9.0312L2.91866 6.93816L1.44123 5.47521C1.28914 5.33036 1.08635 5.23621 0.861838 5.23621C0.412813 5.23621 0.0869081 5.56936 0.0869081 6.02563C0.0869081 6.23565 0.173816 6.43844 0.347632 6.61226L4.95376 11.1749C5.07688 11.2981 5.22173 11.385 5.38106 11.4212H0.77493Z" />
</svg>
