<svg width="16" height="20" viewBox="0 0 16 20" fill="none" xmlns="http://www.w3.org/2000/svg">
<path d="M7.74512 9.09863C8 9.09863 8.20215 9.01953 8.36035 8.85254L11.9639 5.22266C12.1572 5.0293 12.2451 4.81836 12.2451 4.57227C12.2451 4.33496 12.1484 4.10645 11.9639 3.93066L8.36035 0.265625C8.20215 0.0898438 8 0.00195312 7.74512 0.00195312C7.27051 0.00195312 6.89258 0.397461 6.89258 0.880859C6.89258 1.11816 6.98047 1.31152 7.12988 1.47852L9.23047 3.53516C8.81738 3.47363 8.39551 3.43848 7.97363 3.43848C3.62305 3.43848 0.142578 6.91895 0.142578 11.2783C0.142578 15.6377 3.64941 19.1445 8 19.1445C12.3594 19.1445 15.8574 15.6377 15.8574 11.2783C15.8574 10.751 15.4883 10.373 14.9609 10.373C14.4512 10.373 14.1084 10.751 14.1084 11.2783C14.1084 14.6709 11.3926 17.3955 8 17.3955C4.61621 17.3955 1.8916 14.6709 1.8916 11.2783C1.8916 7.85938 4.58984 5.15234 7.97363 5.15234C8.54492 5.15234 9.07227 5.19629 9.53809 5.27539L7.13867 7.64844C6.98047 7.80664 6.89258 8 6.89258 8.2373C6.89258 8.7207 7.27051 9.09863 7.74512 9.09863Z" />
</svg>
