<svg width="40" height="40" viewBox="0 0 40 40" fill="none" xmlns="http://www.w3.org/2000/svg">
<g clip-path="url(#clip0_3_22)">
<path d="M0.689175 29.9526H3.63979C4.83259 29.9526 5.44782 29.3373 5.44782 28.1445V20.0084C5.3976 19.8451 5.38505 19.6819 5.38505 19.4936C5.38505 19.3178 5.3976 19.142 5.44782 18.9913V10.8677C5.44782 9.64983 4.83259 9.07226 3.63979 9.05971H0.689175C-0.503626 9.05971 -1.11886 9.67494 -1.11886 10.8677V28.1445C-1.13142 29.3373 -0.516182 29.9526 0.689175 29.9526ZM21.243 29.6136C22.3479 29.6136 23.2771 28.7849 23.2771 27.2531V20.0084C23.4403 20.6236 23.9049 21.1384 24.6456 21.5778L37.5153 29.1364C38.0552 29.4503 38.5324 29.6136 39.0848 29.6136C40.1897 29.6136 41.1189 28.7849 41.1189 27.2531V11.7592C41.1189 10.2274 40.1897 9.39871 39.0848 9.39871C38.5324 9.39871 38.0552 9.56194 37.5153 9.87583L24.6456 17.4344C23.8923 17.8864 23.4403 18.3761 23.2771 18.9913V11.7592C23.2771 10.2274 22.3605 9.39871 21.2556 9.39871C20.7031 9.39871 20.226 9.56194 19.6735 9.87583L6.80385 17.4344C6.06306 17.8864 5.59849 18.3761 5.44782 18.9913V20.0084C5.61105 20.6236 6.06306 21.1384 6.80385 21.5778L19.6735 29.1364C20.226 29.4503 20.6906 29.6136 21.243 29.6136Z"/>
</g>
<defs>
<clipPath id="clip0_3_22">
<rect width="40" height="40" fill="white"/>
</clipPath>
</defs>
</svg>
