<svg width="8" height="10" viewBox="0 0 8 10" fill="none" xmlns="http://www.w3.org/2000/svg">
<path d="M1.37245 10H6.29172C6.67206 10 6.96987 9.88698 7.18515 9.66093C7.40044 9.43488 7.50808 9.09581 7.50808 8.64371V3.84285C7.50808 3.39074 7.39416 3.05257 7.16632 2.82831C6.93847 2.60406 6.59491 2.49193 6.13564 2.49193H1.37245C0.916756 2.49193 0.574092 2.60406 0.344454 2.82831C0.114818 3.05257 0 3.39074 0 3.84285V8.64371C0 9.09581 0.114818 9.43488 0.344454 9.66093C0.574092 9.88698 0.916756 10 1.37245 10ZM0.963407 1.83531H6.54467C6.50521 1.61644 6.42806 1.44959 6.31324 1.33477C6.19842 1.21995 6.02081 1.16254 5.78041 1.16254H1.72767C1.48727 1.16254 1.30966 1.21995 1.19484 1.33477C1.08002 1.44959 1.00288 1.61644 0.963407 1.83531ZM1.72228 0.613563H5.7858C5.77144 0.409042 5.70596 0.255651 5.58934 0.153391C5.47273 0.0511304 5.3032 0 5.08074 0H2.42734C2.20488 0 2.03535 0.0511304 1.91874 0.153391C1.80212 0.255651 1.73663 0.409042 1.72228 0.613563Z" />
</svg>
