<svg width="40" height="40" viewBox="0 0 40 40" fill="none" xmlns="http://www.w3.org/2000/svg">
<g clip-path="url(#clip0_3_26)">
<path d="M0.915182 29.5759C1.46764 29.5759 1.94476 29.4127 2.48466 29.0988L15.3544 21.5402C16.0951 21.1007 16.5597 20.5859 16.7104 19.9707V27.2154C16.7104 28.7347 17.6395 29.5759 18.7444 29.5759C19.2969 29.5759 19.774 29.4127 20.3139 29.0988L33.1836 21.5402C33.9369 21.1007 34.389 20.5859 34.5522 19.9707V28.1445C34.5522 29.3373 35.1549 29.9526 36.3602 29.9526H39.3108C40.5036 29.9526 41.1189 29.3373 41.1189 28.1445V10.8677C41.1189 9.64983 40.5036 9.05971 39.3108 9.05971H36.3602C35.1674 9.05971 34.5522 9.67494 34.5522 10.8677V18.9537C34.389 18.3384 33.9369 17.8488 33.1836 17.3968L20.3139 9.83817C19.774 9.52427 19.2969 9.36105 18.7444 9.36105C17.6395 9.36105 16.7104 10.1897 16.7104 11.7215V18.9537C16.5597 18.3384 16.1077 17.8488 15.3544 17.3968L2.48466 9.83817C1.9322 9.52427 1.46764 9.36105 0.902626 9.36105C-0.202285 9.36105 -1.11886 10.1897 -1.11886 11.7215V27.2154C-1.11886 28.7347 -0.189729 29.5759 0.915182 29.5759Z"/>
</g>
<defs>
<clipPath id="clip0_3_26">
<rect width="40" height="40" fill="white"/>
</clipPath>
</defs>
</svg>
