<svg xmlns="http://www.w3.org/2000/svg" viewBox="0 0 86.57 85.31"><g id="Layer_2" data-name="Layer 2"><g id="Layer_1-2" data-name="Layer 1"><g id="Regular-S"><path d="M43.31,79.91c.93,0,1.76-.1,2.78-.15l2.25,4.3a2.25,2.25,0,0,0,2.44,1.22,2.4,2.4,0,0,0,1.91-2l.68-4.79a46.37,46.37,0,0,0,5.27-1.9l3.52,3.22a2.34,2.34,0,0,0,2.78.29A2.42,2.42,0,0,0,66,77.56l-1-4.73a32.28,32.28,0,0,0,4.3-3.52l4.44,1.81a2.23,2.23,0,0,0,2.73-.68,2.19,2.19,0,0,0,.15-2.69l-2.54-4.1a33.11,33.11,0,0,0,2.74-4.88l4.83.24a2.33,2.33,0,0,0,2.3-1.56,2.37,2.37,0,0,0-.79-2.64l-3.8-3a29.92,29.92,0,0,0,1-5.52l4.54-1.46a2.31,2.31,0,0,0,0-4.44L80.37,39a30.62,30.62,0,0,0-1-5.57l3.8-3a2.28,2.28,0,0,0-1.51-4.11l-4.83.2a30.73,30.73,0,0,0-2.74-4.88l2.54-4.1a2.19,2.19,0,0,0-.15-2.64,2.3,2.3,0,0,0-2.73-.73l-4.44,1.75A41.16,41.16,0,0,0,65,12.43l1-4.69A2.39,2.39,0,0,0,64.94,5.2a2.21,2.21,0,0,0-2.78.34L58.64,8.67c-1.76-.73-3.51-1.37-5.27-1.91L52.69,2a2.33,2.33,0,0,0-4.35-.83L46.09,5.54c-1,0-1.85-.09-2.78-.09s-1.85,0-2.83.09L38.18,1.2A2.29,2.29,0,0,0,33.89,2L33.2,6.76a50.08,50.08,0,0,0-5.27,1.91L24.37,5.54a2.22,2.22,0,0,0-2.79-.34,2.35,2.35,0,0,0-1,2.54l1,4.69a41,41,0,0,0-4.29,3.51l-4.4-1.75a2.29,2.29,0,0,0-2.73.73,2.12,2.12,0,0,0-.2,2.59l2.54,4.15a36.25,36.25,0,0,0-2.73,4.88l-4.84-.2a2.28,2.28,0,0,0-2.29,1.52,2.32,2.32,0,0,0,.83,2.59l3.76,3A34.46,34.46,0,0,0,6.2,39L1.61,40.41a2.34,2.34,0,0,0,0,4.44L6.2,46.31a33.66,33.66,0,0,0,1,5.52l-3.76,3a2.38,2.38,0,0,0-.83,2.64A2.32,2.32,0,0,0,4.88,59l4.84-.24a39.6,39.6,0,0,0,2.73,4.88l-2.54,4.1a2.27,2.27,0,0,0,.2,2.69,2.22,2.22,0,0,0,2.73.68l4.4-1.81a32.2,32.2,0,0,0,4.29,3.52l-1,4.73a2.3,2.3,0,0,0,3.81,2.25l3.56-3.22a40.86,40.86,0,0,0,5.27,1.9l.69,4.79a2.34,2.34,0,0,0,1.85,2,2.21,2.21,0,0,0,2.44-1.22l2.3-4.3C41.46,79.81,42.29,79.91,43.31,79.91Zm9.86-40c-2.05-5-5.56-7.57-10-7.57a11.22,11.22,0,0,0-2.58.34L30.22,15a30.32,30.32,0,0,1,43.22,25ZM13,42.7A30.7,30.7,0,0,1,25.29,17.9l10.5,17.82a10.43,10.43,0,0,0-3,7.08,10.13,10.13,0,0,0,2.93,6.88L25,67.16A30.55,30.55,0,0,1,13,42.7Zm25.88,0a4.4,4.4,0,0,1,8.79,0,4.4,4.4,0,0,1-8.79,0Zm4.39,30.52a31,31,0,0,1-13.48-3.08l10.7-17.38a10.76,10.76,0,0,0,2.63.34c4.45,0,8-2.59,10-7.67H73.39A30,30,0,0,1,43.31,73.27Z"/></g></g></g></svg>