<svg width="22" height="16" viewBox="0 0 22 16" fill="none" xmlns="http://www.w3.org/2000/svg">
<path d="M4.33789 6.74023H17.6621C18.5498 6.74023 19.3496 6.94238 20.0439 7.30273L17.873 2.21387C17.293 0.851562 16.1152 0.0957031 14.542 0.0957031H7.45801C5.87598 0.0957031 4.70703 0.851562 4.12695 2.21387L1.94727 7.29395C2.6416 6.94238 3.4502 6.74023 4.33789 6.74023ZM4.33789 15.2305H17.6621C19.8066 15.2305 21.2832 13.7627 21.2832 11.6357C21.2832 9.5 19.8066 8.03223 17.6621 8.03223H4.33789C2.18457 8.03223 0.708008 9.5 0.708008 11.6357C0.708008 13.7627 2.18457 15.2305 4.33789 15.2305ZM16.4316 11.6357C16.4316 11.0029 16.9678 10.4668 17.6094 10.4668C18.2422 10.4668 18.7783 11.0029 18.7783 11.6357C18.7783 12.2773 18.2422 12.7959 17.6094 12.7959C16.9678 12.8047 16.4316 12.2861 16.4316 11.6357Z" />
</svg>
