<svg width="17" height="15" viewBox="0 0 17 15" fill="none" xmlns="http://www.w3.org/2000/svg">
    <path d="M0.314163 14.9808V3.01292C0.314163 2.68584 0.428955 2.40744 0.658538 2.17771C0.88826 1.94813 1.16659 1.83334 1.49354 1.83334H9.46791C9.795 1.83334 10.0733 1.94813 10.3029 2.17771C10.5326 2.40744 10.6475 2.68584 10.6475 3.01292V3.41021C10.4989 3.51605 10.3717 3.63598 10.266 3.77001C10.1602 3.90417 10.0651 4.05084 9.98083 4.21001V3.01292C9.98083 2.86334 9.93271 2.74042 9.83646 2.64417C9.74034 2.54806 9.6175 2.50001 9.46791 2.50001H1.49354C1.34395 2.50001 1.22111 2.54806 1.125 2.64417C1.02889 2.74042 0.98083 2.86334 0.98083 3.01292V12.5H9.46791C9.6175 12.5 9.74034 12.4519 9.83646 12.3558C9.93271 12.2596 9.98083 12.1367 9.98083 11.9871V8.79001C10.0651 8.94917 10.1633 9.09653 10.2752 9.23209C10.387 9.36764 10.5111 9.48688 10.6475 9.5898V11.9871C10.6475 12.3142 10.5326 12.5926 10.3029 12.8223C10.0733 13.0519 9.795 13.1667 9.46791 13.1667H2.12812L0.314163 14.9808ZM2.8975 10.5833H5.06416V9.91667H2.8975V10.5833ZM12.6796 8.58334C12.1026 8.58334 11.6112 8.38035 11.2052 7.97438C10.7992 7.56841 10.5962 7.07695 10.5962 6.50001C10.5962 5.92306 10.7992 5.4316 11.2052 5.02563C11.6112 4.61966 12.1026 4.41667 12.6796 4.41667C12.936 4.41667 13.1611 4.45806 13.355 4.54084C13.5489 4.62362 13.796 4.76917 14.0962 4.9775V0.416672H16.2629V1.08334H14.7629V6.50001C14.7629 7.07695 14.5599 7.56841 14.1537 7.97438C13.7478 8.38035 13.2564 8.58334 12.6796 8.58334ZM2.8975 7.83334H8.06416V7.16667H2.8975V7.83334ZM2.8975 5.08334H8.06416V4.41667H2.8975V5.08334Z"/>
</svg>
