<svg width="16" height="16" viewBox="0 0 16 16" fill="none" xmlns="http://www.w3.org/2000/svg">
<path d="M6.50859 13.0172C7.82354 13.0172 9.05579 12.6202 10.0813 11.9421L13.7036 15.5727C13.9434 15.8042 14.2494 15.92 14.5802 15.92C15.2667 15.92 15.7711 15.3824 15.7711 14.7043C15.7711 14.39 15.6636 14.084 15.4321 13.8525L11.8346 10.2384C12.5789 9.17984 13.0172 7.89797 13.0172 6.50859C13.0172 2.92763 10.0896 0 6.50859 0C2.9359 0 0 2.92763 0 6.50859C0 10.0896 2.92763 13.0172 6.50859 13.0172ZM6.50859 11.2805C3.88696 11.2805 1.73673 9.13022 1.73673 6.50859C1.73673 3.88696 3.88696 1.73673 6.50859 1.73673C9.13022 1.73673 11.2805 3.88696 11.2805 6.50859C11.2805 9.13022 9.13022 11.2805 6.50859 11.2805Z" />
</svg>
