<svg width="10" height="10" viewBox="0 0 10 10" fill="none" xmlns="http://www.w3.org/2000/svg">
<path d="M5.03813 10C5.17148 10 5.28504 9.95416 5.3788 9.86248C5.47256 9.77081 5.51944 9.65621 5.51944 9.51869V5.90574L6.96337 4.56808C7.54261 4.63475 8.08226 4.42014 8.58233 3.92424L5.85698 1.19265C5.61112 1.43851 5.43506 1.7 5.32879 1.97712C5.22253 2.25424 5.18606 2.5324 5.2194 2.81161L0.662578 7.70597C0.570901 7.81015 0.518811 7.92891 0.506309 8.06226C0.493814 8.19561 0.543822 8.31854 0.656331 8.43105L0.050007 9.23115C0.0166691 9.27699 0 9.33012 0 9.39055C0 9.45097 0.0250033 9.50827 0.0750098 9.56245L0.218772 9.70621C0.268783 9.75205 0.324001 9.77706 0.384425 9.78122C0.444848 9.78539 0.500061 9.76664 0.550065 9.72497L1.35016 9.11864C1.45852 9.23115 1.58041 9.28116 1.71584 9.26866C1.85127 9.25616 1.969 9.20198 2.06901 9.10614L4.55057 6.80585V9.51869C4.55057 9.65621 4.59745 9.77081 4.69122 9.86248C4.78498 9.95416 4.90061 10 5.03813 10ZM1.25641 8.14351L5.52569 3.6242C5.5632 3.68671 5.60591 3.74713 5.65383 3.80547C5.70175 3.86381 5.7528 3.92007 5.80698 3.97425C5.85698 4.02842 5.91115 4.07946 5.9695 4.12739C6.02784 4.17531 6.0841 4.21802 6.13827 4.25552L1.6377 8.52482L1.25641 8.14351ZM6.39455 0.648827L9.11989 3.38042C9.40326 3.10122 9.59495 2.79909 9.69497 2.47405C9.79498 2.14901 9.80227 1.82397 9.71684 1.49893C9.63142 1.17389 9.4491 0.875935 9.1699 0.60507C8.89487 0.33004 8.59691 0.14877 8.27604 0.0612579C7.95516 -0.0262539 7.6322 -0.0200025 7.30716 0.0800122C6.98212 0.180018 6.67792 0.369624 6.39455 0.648827Z" />
</svg>
