<svg width="7" height="10" viewBox="0 0 7 10" fill="none" xmlns="http://www.w3.org/2000/svg">
<path d="M6.11802 2.2789V0.406546C6.11802 0.268775 6.07001 0.161274 5.974 0.084044C5.87798 0.00681376 5.76317 -0.0171898 5.62958 0.0120333L3.04962 0.575614C2.70312 0.650758 2.52987 0.83236 2.52987 1.12042V6.63102C2.55909 6.8648 2.46725 7.00048 2.25434 7.03805L1.47158 7.20087C0.97062 7.30941 0.600115 7.48996 0.360063 7.74253C0.120021 7.9951 0 8.31133 0 8.69123C0 9.0753 0.13359 9.38945 0.400769 9.63367C0.667949 9.87789 1.01027 10 1.42774 10C1.66988 10 1.93393 9.93425 2.2199 9.80275C2.50586 9.67124 2.75113 9.45938 2.95569 9.16715C3.16025 8.87492 3.26253 8.48667 3.26253 8.00241V3.46868C3.26253 3.34344 3.27819 3.26204 3.3095 3.22446C3.3408 3.18689 3.41282 3.15767 3.52554 3.13679L5.83623 2.6233C5.9239 2.60661 5.99278 2.56695 6.04288 2.50433C6.09298 2.44171 6.11802 2.36657 6.11802 2.2789Z" />
</svg>
