<svg xmlns="http://www.w3.org/2000/svg" viewBox="0 0 88.87 76.71"><g id="Layer_2" data-name="Layer 2"><g id="Layer_1-2" data-name="Layer 1"><g id="Regular-S"><path d="M35.06,47c0,6,4.64,10.21,11.13,10.21,5.71,0,14.36-4.25,14.36-15.58V2.78A2.86,2.86,0,0,0,57.71,0a2.82,2.82,0,0,0-2.83,2.78V30.91c0,1.76-.68,2.88-2.19,3.22L46.58,35.4C38.72,37,35.06,41.06,35.06,47ZM0,66.5c0,6,4.64,10.21,11.13,10.21,5.72,0,14.36-4.25,14.36-15.58V22.31a2.84,2.84,0,0,0-5.67,0V50.44c0,1.76-.68,2.88-2.19,3.22l-6.11,1.27C3.66,56.54,0,60.6,0,66.5Zm63.38,0c0,6,4.64,10.21,11.13,10.21,5.71,0,14.36-4.25,14.36-15.58V22.31a2.84,2.84,0,0,0-5.67,0V50.44c0,1.76-.68,2.88-2.19,3.22L74.9,54.93C67,56.54,63.38,60.6,63.38,66.5Z"/></g></g></g></svg>