<svg xmlns="http://www.w3.org/2000/svg" viewBox="0 0 78.96 77.96"><g id="Layer_2" data-name="Layer 2"><g id="Layer_1-2" data-name="Layer 1"><g id="Regular-S"><path d="M79,17.76V3.16A3,3,0,0,0,75.2.08L55,4.47c-2.64.59-4.05,2-4.05,4.25v43a2.56,2.56,0,0,1-2.1,3.18l-6.11,1.26c-7.86,1.66-11.52,5.67-11.52,11.63S35.89,78,42.38,78c5.72,0,14.36-4.25,14.36-15.58V27c0-2,.29-2.24,2-2.58l18-4A2.64,2.64,0,0,0,79,17.76Zm-76,2.1H36.67a2.93,2.93,0,1,0,0-5.86H2.93a2.93,2.93,0,0,0,0,5.86Zm0,13.77H36.67a2.91,2.91,0,1,0,0-5.82H2.93a2.91,2.91,0,1,0,0,5.82Zm0,13.81H36.67a2.88,2.88,0,0,0,2.93-2.93,2.93,2.93,0,0,0-2.93-2.88H2.93A2.93,2.93,0,0,0,0,44.51,2.88,2.88,0,0,0,2.93,47.44Z"/></g></g></g></svg>