<svg xmlns="http://www.w3.org/2000/svg" viewBox="0 0 98.39 74.76"><g id="Layer_2" data-name="Layer 2"><g id="Layer_1-2" data-name="Layer 1"><g id="Regular-M"><path d="M4,15.17,12.65,10a2.45,2.45,0,0,0,0-4.11L4,.62C2-.6,0,0,0,2.33V13.46C0,15.71,2.05,16.29,4,15.17ZM31.3,11.75H94.43a3.93,3.93,0,1,0,0-7.86H31.3a3.88,3.88,0,0,0-4,4A3.87,3.87,0,0,0,31.3,11.75ZM4,44.61l8.69-5.17a2.44,2.44,0,0,0,0-4.1L4,30.06c-2-1.17-4-.58-4,1.71V42.91C0,45.15,2.05,45.74,4,44.61ZM31.3,41.29H94.43a3.93,3.93,0,1,0,0-7.86H31.3a3.93,3.93,0,1,0,0,7.86ZM4,74.2,12.65,69a2.44,2.44,0,0,0,0-4.1L4,59.65C2,58.48,0,59,0,61.36V72.5C0,74.74,2.05,75.33,4,74.2ZM31.3,70.79H94.43a3.93,3.93,0,1,0,0-7.86H31.3a3.93,3.93,0,1,0,0,7.86Z"/></g></g></g></svg>