<svg width="20" height="20" viewBox="0 0 20 20" fill="none" xmlns="http://www.w3.org/2000/svg">
<path d="M9.99121 19.0322C14.9922 19.0322 19.0879 14.9365 19.0879 9.93555C19.0879 4.94336 15.001 0.847656 10 0.847656C9.45508 0.847656 9.14746 1.17285 9.14746 1.7002V4.93457C9.14746 5.38281 9.46387 5.73438 9.91211 5.73438C10.3604 5.73438 10.6768 5.38281 10.6768 4.93457V2.67578C14.3945 3.01855 17.2598 6.12988 17.2598 9.93555C17.2598 13.9609 14.0342 17.2129 9.99121 17.2129C5.95703 17.2129 2.71387 13.9609 2.72266 9.93555C2.73145 8.2041 3.33789 6.5957 4.35742 5.35645C4.69141 4.89941 4.74414 4.41602 4.36621 4.03809C3.98828 3.66016 3.38184 3.69531 2.98633 4.21387C1.69434 5.77832 0.90332 7.77344 0.90332 9.93555C0.90332 14.9365 4.99902 19.0322 9.99121 19.0322ZM11.4062 11.2891C12.127 10.5244 11.9775 9.4873 11.1162 8.89844L6.65137 5.83105C6.12402 5.47949 5.61426 5.99805 5.96582 6.52539L9.0332 10.9814C9.62207 11.8516 10.6592 12.0098 11.4062 11.2891Z" />
</svg>