<svg width="16" height="16" viewBox="0 0 16 16" fill="none" xmlns="http://www.w3.org/2000/svg">
<g opacity="0.3">
<path d="M7.99498 13.1613C10.8527 13.1613 13.1931 10.8209 13.1931 7.96316C13.1931 5.11048 10.8577 2.77008 8 2.77008C7.68861 2.77008 7.51283 2.95591 7.51283 3.25725V5.10546C7.51283 5.3616 7.69364 5.56249 7.94977 5.56249C8.20591 5.56249 8.38672 5.3616 8.38672 5.10546V3.81472C10.5112 4.01059 12.1484 5.7885 12.1484 7.96316C12.1484 10.2634 10.3052 12.1216 7.99498 12.1216C5.68973 12.1216 3.83649 10.2634 3.84152 7.96316C3.84654 6.97376 4.19308 6.05468 4.77567 5.34653C4.96652 5.08537 4.99665 4.80914 4.78069 4.59318C4.56473 4.37722 4.21819 4.39731 3.99219 4.69363C3.2539 5.5876 2.8019 6.72767 2.8019 7.96316C2.8019 10.8209 5.1423 13.1613 7.99498 13.1613ZM8.80357 8.7366C9.2154 8.29966 9.13002 7.70702 8.63783 7.37053L6.08649 5.61774C5.78515 5.41684 5.49386 5.71316 5.69475 6.0145L7.44754 8.56082C7.78404 9.05803 8.37667 9.14843 8.80357 8.7366Z" fill="black"/>
</g>
</svg>
