<svg width="56" height="56" viewBox="0 0 56 56" fill="none" xmlns="http://www.w3.org/2000/svg">
<path d="M50.5303 36.5379C51.7368 36.5379 52.7016 35.573 52.7016 34.3935V21.6065C52.7016 20.427 51.7368 19.4352 50.5303 19.4352C49.2972 19.4352 48.3859 20.427 48.3859 21.6065V34.3935C48.3859 35.573 49.2972 36.5379 50.5303 36.5379Z" />
<path d="M41.5233 50.0488C42.7295 50.0488 43.6677 49.0839 43.6677 47.9043V8.09575C43.6677 6.91623 42.7295 5.92436 41.5233 5.92436C40.2633 5.92436 39.352 6.91623 39.352 8.09575V47.9043C39.352 49.0839 40.2633 50.0488 41.5233 50.0488Z" />
<path d="M32.4894 41.9261C33.7224 41.9261 34.6607 40.9879 34.6607 39.7817V16.2183C34.6607 15.012 33.7224 14.0469 32.4894 14.0469C31.256 14.0469 30.3447 15.012 30.3447 16.2183V39.7817C30.3447 40.9879 31.256 41.9261 32.4894 41.9261Z" />
<path d="M23.4553 56C24.6884 56 25.6535 55.0348 25.6535 53.8287V2.17137C25.6535 0.965053 24.6884 0 23.4553 0C22.249 0 21.3376 0.965053 21.3376 2.17137V53.8287C21.3376 55.0348 22.249 56 23.4553 56Z" />
<path d="M14.4481 45.1966C15.6812 45.1966 16.6195 44.2317 16.6195 43.0253V12.9746C16.6195 11.7683 15.6812 10.7764 14.4481 10.7764C13.2418 10.7764 12.3035 11.7683 12.3035 12.9746V43.0253C12.3035 44.2317 13.2418 45.1966 14.4481 45.1966Z" />
<path d="M5.41411 34.2326C6.67405 34.2326 7.61231 33.2675 7.61231 32.0613V23.9387C7.61231 22.7324 6.67405 21.7405 5.41411 21.7405C4.2078 21.7405 3.29636 22.7324 3.29636 23.9387V32.0613C3.29636 33.2675 4.2078 34.2326 5.41411 34.2326Z" />
</svg>
