<svg width="28" height="28" viewBox="0 0 28 28" fill="none" xmlns="http://www.w3.org/2000/svg">
<path d="M7.18849 19.0509C6.81935 19.4201 6.80177 20.0792 7.19728 20.466C7.58399 20.8527 8.24317 20.8439 8.61231 20.4747L13.9912 15.087L19.3789 20.4747C19.7568 20.8527 20.4072 20.8527 20.794 20.466C21.1719 20.0704 21.1807 19.4288 20.794 19.0509L15.415 13.6632L20.794 8.28431C21.1807 7.90638 21.1807 7.25599 20.794 6.86927C20.3984 6.49134 19.7568 6.48255 19.3789 6.86048L13.9912 12.2482L8.61231 6.86048C8.24317 6.49134 7.5752 6.47376 7.19728 6.86927C6.81056 7.25599 6.81935 7.91517 7.18849 8.28431L12.5762 13.6632L7.18849 19.0509Z" fill="#1C1C1E"/>
</svg>
