<svg viewBox="0 0 20 19" fill="none" xmlns="http://www.w3.org/2000/svg">
<path d="M10 18.7334C14.9658 18.7334 19.0791 14.6289 19.0791 9.6543C19.0791 4.68848 14.9658 0.575195 9.99121 0.575195C5.02539 0.575195 0.920898 4.68848 0.920898 9.6543C0.920898 14.6289 5.03418 18.7334 10 18.7334ZM10 16.9492C5.95703 16.9492 2.71387 13.6973 2.71387 9.6543C2.71387 5.61133 5.94824 2.36816 9.99121 2.36816C14.0342 2.36816 17.2861 5.61133 17.2949 9.6543C17.2949 13.6973 14.043 16.9492 10 16.9492ZM9.98242 12.335C10.1758 12.335 10.3428 12.2559 10.4834 12.124L13.3838 9.20605C13.542 9.05664 13.5947 8.88965 13.5947 8.71387C13.5947 8.35352 13.3398 8.07227 12.9707 8.07227C12.7861 8.07227 12.6191 8.14258 12.4873 8.27441L11.9336 8.82812L10.5449 10.4014L10.6416 8.90723V5.24219C10.6416 4.85547 10.3691 4.57422 9.98242 4.57422C9.58691 4.57422 9.32324 4.85547 9.32324 5.24219V8.90723L9.42871 10.4102L8.01367 8.81934L7.50391 8.27441C7.38086 8.13379 7.22266 8.07227 7.02051 8.07227C6.65137 8.07227 6.3877 8.33594 6.3877 8.72266C6.3877 8.87207 6.4668 9.07422 6.58984 9.19727L9.49023 12.124C9.63086 12.2646 9.79785 12.335 9.98242 12.335ZM6.7832 14.2598H13.208C13.5859 14.2598 13.8584 13.9785 13.8584 13.6006C13.8584 13.2314 13.5859 12.959 13.208 12.959H6.7832C6.40527 12.959 6.13281 13.2314 6.13281 13.6006C6.13281 13.9785 6.40527 14.2598 6.7832 14.2598Z" />
</svg>
