<svg xmlns="http://www.w3.org/2000/svg" viewBox="0 0 97.56 55.62"><g id="Layer_2" data-name="Layer 2"><g id="Layer_1-2" data-name="Layer 1"><g id="Ultralight-S"><path d="M45.07,55.62c1.9,0,3.81-1.42,3.81-4.64V29a4,4,0,0,0,1.85,2.1l39.9,23.44a6.42,6.42,0,0,0,3.12,1.08c1.9,0,3.81-1.42,3.81-4.64V4.64C97.56,1.42,95.65,0,93.75,0a7.12,7.12,0,0,0-3.12,1L50.73,24.51a3.94,3.94,0,0,0-1.85,2V4.64C48.88,1.42,47,0,45.07,0a7.16,7.16,0,0,0-3.13,1L2.05,24.51a3.67,3.67,0,0,0,0,6.59L41.94,54.54A6.46,6.46,0,0,0,45.07,55.62Z"/></g></g></g></svg>