<svg viewBox="0 0 24 16" xmlns="http://www.w3.org/2000/svg">
<path d="M18.3281 15.6592C21.0703 15.6592 23.2324 13.6465 23.2324 11.1328C23.2324 9.26074 22.1689 7.59961 20.4199 6.87012C20.4287 2.89746 17.5635 0.0322266 13.8809 0.0322266C11.543 0.0322266 9.78516 1.23633 8.68652 2.83594C6.4541 2.23828 4.10742 3.89941 4.01953 6.37793C2.00684 6.73828 0.767578 8.54004 0.767578 10.7461C0.767578 13.418 3.10547 15.6504 6.18164 15.6504L18.3281 15.6592ZM18.3281 13.9014H6.19043C4.09863 13.9014 2.54297 12.4424 2.54297 10.7461C2.54297 8.98828 3.62402 7.6875 5.41699 7.6875C5.54883 7.6875 5.60156 7.61719 5.59277 7.49414C5.54004 4.88379 7.41211 3.9873 9.30176 4.58496C9.41602 4.62012 9.48633 4.59375 9.53906 4.49707C10.4092 2.96777 11.6924 1.78125 13.8721 1.78125C16.6318 1.78125 18.6006 3.96973 18.7324 6.52734C18.7588 7.00195 18.7236 7.51172 18.6885 7.93359C18.6709 8.05664 18.7236 8.12695 18.8379 8.14453C20.4287 8.45215 21.457 9.57715 21.457 11.1328C21.457 12.6709 20.0947 13.9014 18.3281 13.9014Z" />
</svg>
