<svg width="24" height="21" viewBox="0 0 24 21" fill="none" xmlns="http://www.w3.org/2000/svg">
<path d="M5.63672 15.2002H10.9453V9.82129C10.9453 9.25 11.4287 8.78418 12 8.78418C12.5713 8.78418 13.0459 9.25 13.0459 9.82129V15.2002H18.8643C21.4658 15.2002 23.2324 13.6006 23.2324 11.4033C23.2324 9.58398 22.1689 7.98438 20.4199 7.27246C20.4287 3.2998 17.5635 0.43457 13.8809 0.43457C11.543 0.43457 9.78516 1.63867 8.68652 3.22949C6.58594 2.71094 4.10742 4.30176 4.01953 6.78027C2.00684 7.13184 0.767578 8.90723 0.767578 10.9902C0.767578 13.3193 2.70996 15.2002 5.63672 15.2002ZM12 20.5791C12.2109 20.5791 12.4131 20.5088 12.624 20.2979L15.5771 17.4502C15.7266 17.3008 15.8057 17.1426 15.8057 16.9316C15.8057 16.5186 15.4717 16.2197 15.0674 16.2197C14.8652 16.2197 14.6631 16.3076 14.5225 16.4658L13.3008 17.7666L12.7295 18.417L12.8174 17.1162V15.0859C12.8174 14.6465 12.4482 14.2773 12 14.2773C11.543 14.2773 11.1738 14.6465 11.1738 15.0859V17.1162L11.2617 18.417L10.6992 17.7666L9.46875 16.4658C9.32812 16.3076 9.11719 16.2197 8.91504 16.2197C8.51074 16.2197 8.18555 16.5186 8.18555 16.9316C8.18555 17.1426 8.27344 17.3008 8.42285 17.4502L11.376 20.2979C11.5869 20.5088 11.7803 20.5791 12 20.5791Z" />
</svg>
