<svg xmlns="http://www.w3.org/2000/svg" viewBox="0 0 97.56 55.62"><g id="Layer_2" data-name="Layer 2"><g id="Layer_1-2" data-name="Layer 1"><g id="Symbols"><g id="Ultralight-S"><path d="M3.81,55.62a6.45,6.45,0,0,0,3.12-1.08L46.83,31.1A4,4,0,0,0,48.68,29V51c0,3.22,1.91,4.64,3.81,4.64a6.49,6.49,0,0,0,3.13-1.08L95.51,31.1a3.67,3.67,0,0,0,2-3.32,3.58,3.58,0,0,0-2-3.27L55.62,1a7.2,7.2,0,0,0-3.13-1c-1.9,0-3.81,1.42-3.81,4.64V26.56a3.78,3.78,0,0,0-1.85-2L6.93,1A7.12,7.12,0,0,0,3.81,0C1.9,0,0,1.42,0,4.64V51C0,54.2,1.9,55.62,3.81,55.62Z"/></g></g></g></g></svg>