<svg viewBox="0 0 22 17" xmlns="http://www.w3.org/2000/svg">
<path d="M0.400391 12.2139C0.400391 14.5781 2.17578 16.3535 4.71582 16.3535H17.2842C19.8242 16.3535 21.5996 14.5781 21.5996 12.2139C21.5996 11.502 21.3975 10.8604 21.1514 10.2803L18.1279 3.19629C17.5127 1.74609 16.291 0.981445 14.6562 0.981445H7.35254C5.70898 0.981445 4.4873 1.74609 3.88086 3.19629L0.875 10.2451C0.620117 10.834 0.400391 11.4844 0.400391 12.2139ZM3.57324 8.26758L5.48926 3.5918C5.78809 2.83594 6.46484 2.44043 7.37012 2.44043H14.6299C15.5439 2.44043 16.2207 2.83594 16.5195 3.5918L18.4355 8.26758C18.084 8.15332 17.6973 8.08301 17.2842 8.08301H4.71582C4.30273 8.08301 3.9248 8.15332 3.57324 8.26758ZM2.08789 12.2139C2.08789 10.8164 3.13379 9.77051 4.71582 9.77051H17.2842C18.8662 9.77051 19.9121 10.8164 19.9121 12.2139C19.9121 13.7607 18.8662 14.6572 17.2842 14.6572H4.71582C3.13379 14.6572 2.08789 13.6201 2.08789 12.2139ZM8.45117 13.084C8.45117 13.3828 8.68848 13.6113 8.9873 13.6113C9.27734 13.6113 9.50586 13.3828 9.50586 13.084V11.3525C9.50586 11.0625 9.27734 10.8252 8.9873 10.8252C8.68848 10.8252 8.45117 11.0625 8.45117 11.3525V13.084ZM10.4727 13.084C10.4727 13.3828 10.7012 13.6113 11 13.6113C11.29 13.6113 11.5273 13.3828 11.5273 13.084V11.3525C11.5273 11.0625 11.29 10.8252 11 10.8252C10.7012 10.8252 10.4727 11.0625 10.4727 11.3525V13.084ZM12.4854 13.084C12.4854 13.3828 12.7227 13.6113 13.0215 13.6113C13.3115 13.6113 13.5488 13.3828 13.5488 13.084V11.3525C13.5488 11.0625 13.3115 10.8252 13.0215 10.8252C12.7227 10.8252 12.4854 11.0625 12.4854 11.3525V13.084ZM14.5068 13.084C14.5068 13.3828 14.7441 13.6113 15.043 13.6113C15.333 13.6113 15.5703 13.3828 15.5703 13.084V11.3525C15.5703 11.0625 15.333 10.8252 15.043 10.8252C14.7441 10.8252 14.5068 11.0625 14.5068 11.3525V13.084ZM16.5283 13.084C16.5283 13.3828 16.7656 13.6113 17.0645 13.6113C17.3545 13.6113 17.583 13.3828 17.583 13.084V11.3525C17.583 11.0625 17.3545 10.8252 17.0645 10.8252C16.7656 10.8252 16.5283 11.0625 16.5283 11.3525V13.084Z" />
</svg>
