<svg xmlns="http://www.w3.org/2000/svg" viewBox="0 0 95.36 64.26"><g id="Layer_2" data-name="Layer 2"><g id="Layer_1-2" data-name="Layer 1"><g id="Regular-S"><path d="M66.26,64.26A3.71,3.71,0,0,0,70,60.6V3.66a3.76,3.76,0,0,0-7.52,0V60.6A3.71,3.71,0,0,0,66.26,64.26Zm25.34,0a3.68,3.68,0,0,0,3.76-3.66V3.66a3.76,3.76,0,0,0-7.52,0V60.6A3.71,3.71,0,0,0,91.6,64.26ZM5.91,62.7a8.56,8.56,0,0,0,4.69-1.52L49.37,38.33c3-1.76,4.24-3.86,4.24-6.2s-1.22-4.44-4.24-6.25L10.6,3.08A8.56,8.56,0,0,0,5.91,1.56C2.64,1.56,0,4.05,0,8.54V55.71C0,60.21,2.64,62.7,5.91,62.7Zm2-8.16A.81.81,0,0,1,7,53.66V10.6a.81.81,0,0,1,.83-.88,1.35,1.35,0,0,1,.78.29L44.29,31.2c.49.25.73.49.73.93s-.24.68-.73.93L8.64,54.25A1.43,1.43,0,0,1,7.86,54.54Z"/></g></g></g></svg>