<svg xmlns="http://www.w3.org/2000/svg" viewBox="0 0 111.08 63.13"><g id="Layer_2" data-name="Layer 2"><g id="Layer_1-2" data-name="Layer 1"><g id="Regular-S"><path d="M68.21,63.13H77.1c3.52,0,5.42-1.9,5.42-5.46V5.42C82.52,1.71,80.62,0,77.1,0H68.21c-3.51,0-5.42,1.9-5.42,5.42V57.67C62.79,61.23,64.7,63.13,68.21,63.13Zm28.57,0h8.84c3.56,0,5.46-1.9,5.46-5.46V5.42c0-3.71-1.9-5.42-5.46-5.42H96.78c-3.52,0-5.42,1.9-5.42,5.42V57.67C91.36,61.23,93.26,63.13,96.78,63.13Zm-90.87-1A8.62,8.62,0,0,0,10.6,60.6L49.37,37.74c3-1.75,4.24-3.85,4.24-6.2s-1.22-4.44-4.24-6.25L10.6,2.49A8.54,8.54,0,0,0,5.91,1C2.64,1,0,3.47,0,8V55.13C0,59.62,2.64,62.11,5.91,62.11Z"/></g></g></g></svg>