<svg xmlns="http://www.w3.org/2000/svg" viewBox="0 0 98.39 84.08"><g id="Layer_2" data-name="Layer 2"><g id="Layer_1-2" data-name="Layer 1"><g id="Regular-M"><path d="M61.23,7.37h33.4a3.72,3.72,0,0,0,3.76-3.71A3.71,3.71,0,0,0,94.63,0H61.23a3.62,3.62,0,0,0-3.66,3.66A3.64,3.64,0,0,0,61.23,7.37ZM.05,33.4c0,4,2,6.44,5.57,6.44s5.61-2.49,5.61-6.44V24.07a1.51,1.51,0,0,1,1.66-1.71H26.22v4.89c0,3.85,3.86,5.32,6.84,3L46.29,19.68a3.71,3.71,0,0,0,0-6L33.06,3.12c-3.08-2.49-6.84-1-6.84,3v5.08H11.82C4.93,11.18.05,15.43.05,22.36ZM61.23,33h33.4a3.69,3.69,0,1,0,0-7.37H61.23a3.69,3.69,0,0,0,0,7.37ZM3.66,58.54h91a3.75,3.75,0,0,0,3.76-3.71,3.71,3.71,0,0,0-3.76-3.66h-91A3.62,3.62,0,0,0,0,54.83,3.67,3.67,0,0,0,3.66,58.54Zm0,25.54h91a3.71,3.71,0,0,0,3.76-3.66,3.75,3.75,0,0,0-3.76-3.71h-91A3.67,3.67,0,0,0,0,80.42,3.62,3.62,0,0,0,3.66,84.08Z"/></g></g></g></svg>