<svg xmlns="http://www.w3.org/2000/svg" viewBox="0 0 106.69 89.45"><g id="Layer_2" data-name="Layer 2"><g id="Layer_1-2" data-name="Layer 1"><g id="Regular-M"><path d="M0,41.16a5.37,5.37,0,0,0,10.74,0V37.94c0-7.76,5.37-12.89,13.38-12.89H60.94v10.2a4.05,4.05,0,0,0,4.39,4.3,5.27,5.27,0,0,0,3.32-1.22L87.11,23.1a4.1,4.1,0,0,0,0-6.55L68.65,1.22A5.57,5.57,0,0,0,65.33,0a4.09,4.09,0,0,0-4.39,4.35v10.1H25.15C9.77,14.45,0,23.29,0,37.16ZM45.75,54.25A4,4,0,0,0,41.36,50a5.25,5.25,0,0,0-3.27,1.17L19.63,66.36a4,4,0,0,0,0,6.54L38.09,88.23a5,5,0,0,0,3.27,1.22,4,4,0,0,0,4.39-4.29V75H81.54c15.38,0,25.15-8.89,25.15-22.7v-4a5.37,5.37,0,1,0-10.74,0v3.22c0,7.72-5.37,12.9-13.38,12.9H45.75Z"/></g></g></g></svg>