<svg xmlns="http://www.w3.org/2000/svg" viewBox="0 0 114.69 90.97"><g id="Layer_2" data-name="Layer 2"><g id="Layer_1-2" data-name="Layer 1"><g id="Symbols"><g id="Regular-M"><path d="M0,70.51c0,3.12,2.29,5.27,5.76,5.27H16.85c8.44,0,13.47-2.44,19.58-9.52L47.36,53.47l11,12.79c6,7.08,11.08,9.57,19.58,9.57h9V86.67A4,4,0,0,0,91.26,91a5.27,5.27,0,0,0,3.32-1.22L113,74.51A4.08,4.08,0,0,0,113,68L94.58,52.64a5.27,5.27,0,0,0-3.32-1.22,4,4,0,0,0-4.35,4.29v9.48H78.22c-5.08,0-8.2-1.62-12.16-6.25L54.39,45.31,66.06,31.74c4-4.69,7.08-6.3,12.16-6.3h8.69v9.81a4,4,0,0,0,4.35,4.3,5.27,5.27,0,0,0,3.32-1.22L113,23.1a4.09,4.09,0,0,0,0-6.55L94.58,1.22A5.27,5.27,0,0,0,91.26,0a4,4,0,0,0-4.35,4.3V14.84h-9c-8.5,0-13.57,2.49-19.58,9.57l-11,12.8L36.43,24.41c-6.11-7.08-11.14-9.57-19.58-9.57H5.76C2.29,14.84,0,17,0,20.17s2.34,5.32,5.76,5.32H17.09c4.69,0,7.67,1.61,11.67,6.25L40.43,45.31,28.76,58.94c-4.05,4.63-7,6.25-11.67,6.25H5.76C2.34,65.19,0,67.38,0,70.51Z"/></g></g></g></g></svg>